<svg width="34" height="35" viewBox="0 0 34 35" fill="none" xmlns="http://www.w3.org/2000/svg">
<path d="M9.7475 27.2997C9.63962 24.7814 8.61367 23.5947 6.68743 23.5947C5.24958 23.5947 3.89581 24.6513 3.89581 26.3465C3.89581 27.8786 5.15431 29.0982 6.64755 29.0982H28.3278C30.1042 29.0982 30.1042 27.7079 30.1042 26.9614C30.1042 26.2148 29.615 25.1849 27.607 25.1849C25.5989 25.1849 24.5434 27.2446 24.5434 27.2446" stroke="#D9D9D9" stroke-width="1.5" stroke-linecap="round" stroke-linejoin="round"/>
<path d="M13.9836 15.2473C19.3129 20.406 15.263 25.3375 8.74304 27.6914" stroke="#D9D9D9" stroke-width="1.5" stroke-linecap="round" stroke-linejoin="round"/>
<path d="M17.5536 12.0793C20.2001 14.2403 21.2797 16.5954 21.2797 19.3391C21.2797 22.0827 18.3904 25.1419 15.4525 27.06" stroke="#D9D9D9" stroke-width="1.5" stroke-linecap="round" stroke-linejoin="round"/>
<path d="M25.8999 25.7349C26.7426 23.0053 22.0584 22.0628 18.3669 24.7192" stroke="#D9D9D9" stroke-width="1.5" stroke-linecap="round" stroke-linejoin="round"/>
<path d="M17.8812 15.0893L16.7146 16.2559L14.2722 14.3226L13.51 16.7653L14.5238 18.3674L13.68 19.1933L12.2339 17.6439C11.8525 17.2353 11.6405 16.6973 11.6405 16.1383V14.8714C9.04251 12.0064 7.00301 9.60267 6.68738 4.96521C11.3248 5.28084 13.7286 7.32035 16.5936 9.9183H17.8605C18.4194 9.9183 18.9574 10.1304 19.366 10.5117L20.9155 11.9578L20.1551 12.7348L18.4875 11.7879L16.0447 12.55L17.8812 15.0893Z" stroke="#D9D9D9" stroke-width="1.5" stroke-linecap="round" stroke-linejoin="round"/>
<path d="M11.6162 11.6058C12.5851 11.6058 13.3704 10.8205 13.3704 9.85166C13.3704 8.88285 12.5851 8.09747 11.6162 8.09747C10.6474 8.09747 9.86206 8.88285 9.86206 9.85166C9.86206 10.8205 10.6474 11.6058 11.6162 11.6058Z" stroke="#D9D9D9" stroke-width="1.5" stroke-linecap="round" stroke-linejoin="round"/>
</svg>
