<svg width="178" height="35" viewBox="0 0 178 35" fill="none" xmlns="http://www.w3.org/2000/svg">
<path d="M27.3197 28V7.41667H33.653L37.8848 20.5439H37.9424L42.1742 7.41667H48.5075V28H43.6136V15.1894H43.556L39.7272 28H36.1L32.2712 15.1894H32.2136V28H27.3197ZM49.075 7.41667H54.5447L58.5462 15.8803H58.6038L62.6341 7.41667H68.1038L61.1659 20.4V28H55.9841V20.4L49.075 7.41667ZM74.7274 15.3045H83.7093V19.5364H74.7274V23.7682H85.3214V28H69.5456V7.41667H85.1487V11.6485H74.7274V15.3045ZM96.147 15.2182C100.033 16.2833 104.035 17.55 104.035 21.9545C104.035 25.8985 101.041 28.4606 95.8879 28.4606C90.5333 28.4606 86.503 25.8121 86.503 21.2348H91.6849C91.6849 23.4227 93.5849 24.2288 95.8879 24.2288C97.8167 24.2288 98.853 23.4803 98.853 22.4439C98.853 20.803 96.6364 20.4288 93.7288 19.5652C90.1879 18.5288 87.0788 17.003 87.0788 13.203C87.0788 8.71212 90.5909 6.95606 95.0243 6.95606C99.8318 6.95606 103.603 9.48939 103.747 13.6636H98.5652C98.3349 12.1091 97.0106 11.1879 95.0243 11.1879C93.4697 11.1879 92.2606 11.6773 92.2606 12.8288C92.2606 14.0955 93.5561 14.4985 96.147 15.2182ZM110.457 28V11.6485H104.469V7.41667H121.597V11.6485H115.638V28H110.457ZM128.677 15.3045H137.658V19.5364H128.677V23.7682H139.271V28H123.495V7.41667H139.098V11.6485H128.677V15.3045ZM141.572 28V7.41667H151.273C155.85 7.41667 158.614 9.51818 158.614 13.4045C158.614 16.1394 157.002 17.8667 154.44 18.4424V18.5C159.593 19.3924 157.722 27.3667 158.902 27.7121V28H153.519C152.511 27.1364 154.382 20.8318 149.978 20.8318H146.753V28H141.572ZM146.753 11.6485V16.6H150.265C152.338 16.6 153.432 15.8515 153.432 14.1242C153.432 12.397 152.338 11.6485 150.265 11.6485H146.753ZM158.773 7.41667H164.242L168.244 15.8803H168.301L172.332 7.41667H177.801L170.863 20.4V28H165.682V20.4L158.773 7.41667Z" fill="white"/>
<rect x="4.31824" y="7.19702" width="20.1515" height="20.4394" fill="white"/>
<rect y="7.19702" width="2.87879" height="20.1515" fill="white"/>
</svg>
