<svg width="30" height="31" viewBox="0 0 30 31" fill="none" xmlns="http://www.w3.org/2000/svg">
<path d="M25.1692 12.6334H27.756C26.7734 6.29956 21.2656 1.5603 14.8255 1.5603C8.23375 1.5603 2.57877 6.62436 1.82413 13.1418H4.83076C5.06626 13.1418 5.29836 13.1847 5.52379 13.2699C6.93261 9.33717 10.6338 6.71573 14.8254 6.71573C18.8866 6.71573 22.5337 9.22237 24.0168 12.9915C24.3544 12.7584 24.7518 12.6334 25.1692 12.6334ZM14.8254 4.69617C10.5945 4.69617 6.64612 6.97476 4.52118 10.6436L4.0515 10.4161C5.81127 5.95442 10.04 3.07133 14.8253 3.07133C19.6103 3.07133 23.839 5.95387 25.5996 10.4151L25.1297 10.6426C23.0041 6.97421 19.0562 4.69617 14.8254 4.69617Z" fill="#D9D9D9"/>
<path d="M23.1553 21.9035C21.3453 24.7504 18.2318 26.4842 14.8259 26.4842C11.6349 26.4842 8.70811 24.975 6.84581 22.4096C6.72609 23.1436 6.20607 23.7565 5.50494 24.0026C7.7542 26.8279 11.209 28.5031 14.826 28.5031C18.6896 28.5031 22.2862 26.641 24.5231 23.5026C23.8079 23.2646 23.2768 22.6472 23.1553 21.9035Z" fill="#D9D9D9"/>
<path d="M11.3559 17.8953C12.3856 17.8953 13.2202 17.0606 13.2202 16.031C13.2202 15.0014 12.3856 14.1667 11.3559 14.1667C10.3263 14.1667 9.49167 15.0014 9.49167 16.031C9.49167 17.0606 10.3263 17.8953 11.3559 17.8953Z" fill="#D9D9D9"/>
<path d="M18.474 17.8953C19.5036 17.8953 20.3383 17.0606 20.3383 16.031C20.3383 15.0014 19.5036 14.1667 18.474 14.1667C17.4444 14.1667 16.6097 15.0014 16.6097 16.031C16.6097 17.0606 17.4444 17.8953 18.474 17.8953Z" fill="#D9D9D9"/>
<path d="M6.10212 22.0843V20.6359V15.1824C6.10212 14.7426 5.87713 14.3546 5.53724 14.1265C5.33523 13.9911 5.09218 13.9118 4.83118 13.9118H3.5353H2.9622H1.4956H1.27116C0.56992 13.9116 0 14.4816 0 15.1829V22.0843C0 22.7855 0.56992 23.3554 1.27116 23.3554C1.27116 23.3554 2.22726 23.3565 2.86492 23.3565C3.18336 23.3565 3.42236 23.3565 3.42236 23.3554C3.42236 23.3554 4.62874 23.3487 4.93646 23.3451C5.58736 23.2897 6.10212 22.7492 6.10212 22.0843ZM4.5332 20.6348V21.7788C4.06867 21.7823 3.41492 21.7855 3.41437 21.7855L3.27211 21.7861C3.17483 21.7861 3.03158 21.7861 2.86536 21.7861L1.56936 21.785V15.4806H2.96209H3.53464H4.5332V20.6348Z" fill="#D9D9D9"/>
<path d="M28.7283 13.4032H28.117H26.5639H26.0737H25.1692C24.7095 13.4032 24.3097 13.6506 24.0863 14.0171C23.9695 14.2096 23.8979 14.4331 23.8979 14.6741V19.7779V21.5757C23.8979 22.2763 24.4678 22.8468 25.1696 22.8468H28.7287C29.43 22.8468 29.9999 22.2763 29.9999 21.5757V14.6742C29.999 13.9732 29.429 13.4032 28.7283 13.4032ZM28.43 21.2779H25.4668V19.7779V14.9722H26.0725H26.5633H28.1164H28.4299V21.2779H28.43Z" fill="#D9D9D9"/>
</svg>
