<svg width="42" height="41" viewBox="0 0 42 41" fill="none" xmlns="http://www.w3.org/2000/svg">
<g clip-path="url(#clip0_7_626)">
<path d="M29.6942 33.6886C24.9174 32.6541 18.0179 34.0588 18.0179 34.0588L21.3164 18.8286C21.3164 18.8286 28.1466 17.4088 34.3772 18.7582L29.6942 33.6886Z" fill="#5C6BC0"/>
<path d="M7.54106 28.8908C12.3178 29.9253 18.0179 34.0588 18.0179 34.0588L21.3163 18.8286C21.3163 18.8286 15.6855 14.7101 9.45496 13.3607L7.54106 28.8908Z" fill="#7986CB"/>
<path d="M21.6163 17.444C24.675 18.1064 27.6915 16.1639 28.354 13.1052C29.0164 10.0465 27.0738 7.0299 24.0151 6.36747C20.9564 5.70504 17.9399 7.6476 17.2774 10.7063C16.615 13.765 18.5576 16.7816 21.6163 17.444Z" fill="#FFB74D"/>
<path d="M31.5859 28.3001L32.2782 28.4501C32.6936 28.54 33.0304 28.3231 33.1204 27.9077L33.7201 25.1386C33.8101 24.7232 33.5931 24.3863 33.1778 24.2964L32.4855 24.1464C31.3086 23.8916 30.2137 24.5966 29.9588 25.7735C29.704 26.9504 30.409 28.0453 31.5859 28.3001Z" fill="#FFB74D"/>
<path d="M8.94786 19.0488L8.25558 18.8989C7.84021 18.8089 7.50332 19.0259 7.41336 19.4412L6.81364 22.2104C6.72369 22.6258 6.94063 22.9626 7.356 23.0526L8.04828 23.2025C9.22516 23.4574 10.32 22.7523 10.5749 21.5755C10.8298 20.3986 10.1247 19.3037 8.94786 19.0488Z" fill="#FFB74D"/>
</g>
<defs>
<clipPath id="clip0_7_626">
<rect width="34" height="34" fill="white" transform="translate(8) rotate(12.22)"/>
</clipPath>
</defs>
</svg>
