<svg width="40" height="40" viewBox="0 0 40 40" fill="none" xmlns="http://www.w3.org/2000/svg">
<g clip-path="url(#clip0_7_494)">
<path d="M28.0896 30.2341C27.8798 30.2681 27.6531 30.1972 27.4263 30.1263C24.2887 28.697 21.8712 26.3977 20.2419 23.6478C19.5638 26.7714 17.8908 29.7333 15.4696 32.0628C15.2768 32.2017 15.0841 32.3405 14.8743 32.3745C14.6645 32.4085 14.4378 32.3376 14.3159 32.2497C16.5805 33.6051 19.1457 34.1583 21.8727 33.7166C24.5996 33.275 26.9469 31.8184 28.6849 29.9224C28.4921 30.0613 28.2993 30.2001 28.0896 30.2341Z" fill="#D9D9D9"/>
<path d="M34.3479 17.7036L31.0966 18.2302C30.598 16.4812 29.6799 14.8001 28.4982 13.4846L30.8004 10.4208C31.152 9.93336 31.0501 9.30406 30.5626 8.95248C30.0751 8.6009 29.4458 8.70282 29.0942 9.1903L26.9678 12.0103C26.2195 11.3781 25.2786 10.8847 24.4594 10.4792C23.3545 7.64434 20.4975 5.95438 17.4559 6.44701C14.4143 6.93964 12.2369 9.44501 12.1881 12.4667C11.434 13.127 10.8017 13.8752 10.2743 14.6064L7.38342 12.7067C6.89594 12.3551 6.26664 12.457 5.91505 12.9445C5.56347 13.432 5.66539 14.0613 6.15288 14.4129L9.18265 16.5054C8.47653 18.1266 8.13601 20.0116 8.23202 21.9335L4.98064 22.4601C4.35134 22.562 3.99976 23.0495 4.10168 23.6788C4.20361 24.3081 4.69109 24.6597 5.32039 24.5577L8.46689 24.0481C8.89453 26.0239 9.72472 27.8269 10.8186 29.2642L8.8679 31.8405C8.51631 32.328 8.61824 32.9573 9.10572 33.3088C9.45435 33.4677 9.6811 33.5386 9.99575 33.4876C10.2055 33.4536 10.5032 33.2978 10.679 33.054L12.366 30.8434C12.8704 31.2998 13.4628 31.6344 13.9673 32.0909C13.9673 32.0909 13.9673 32.0909 13.9503 31.986C13.5507 31.5126 13.5537 30.8663 14.0271 30.4667C17.4831 27.2161 19.1111 22.647 18.3976 18.2419L17.1915 10.7952C17.0896 10.1659 17.4411 9.67844 18.0704 9.57652C18.6997 9.4746 19.1872 9.82618 19.2891 10.4555L20.4952 17.9022C21.2087 22.3073 24.1956 26.1289 28.501 28.1224C29.0764 28.3521 29.2832 28.9645 29.0535 29.5398L28.9656 29.6617C29.4051 29.0524 29.8615 28.5479 30.1791 27.8506L32.5996 29.5037C32.8433 29.6795 33.0701 29.7504 33.3847 29.6994C33.6994 29.6484 33.8921 29.5096 34.0679 29.2659C34.4195 28.7784 34.3176 28.1491 33.8301 27.7975L31.0611 25.9856C31.6453 24.2765 31.864 22.3037 31.6631 20.3988L34.8096 19.8892C35.4389 19.7872 35.7904 19.2998 35.6885 18.6705C35.5866 18.0412 34.9772 17.6017 34.3479 17.7036Z" fill="#D9D9D9"/>
</g>
<defs>
<clipPath id="clip0_7_494">
<rect width="34" height="34" fill="white" transform="translate(0.164978 6.01849) rotate(-9.2)"/>
</clipPath>
</defs>
</svg>
