<svg width="30" height="30" viewBox="0 0 30 30" fill="none" xmlns="http://www.w3.org/2000/svg">
<path d="M0.407979 15.63C1.73161 15.2994 3.53132 14.8492 6.68442 14.7655C6.5973 14.5913 6.5186 14.4108 6.44894 14.2248C5.22198 14.2142 1.44327 14.3884 0.148877 14.7082C0.141553 14.7105 0.133702 14.711 0.12585 14.711C0.0825493 14.711 0.0426469 14.6813 0.0319828 14.6374C0.0196196 14.5863 0.0510844 14.5335 0.102764 14.5205C1.38538 14.2035 5.07298 14.0276 6.37921 14.031C6.08524 13.1666 5.9554 12.1762 5.9554 11.0707C5.9554 9.10683 6.56694 8.36603 7.3886 7.31948C6.76024 5.08138 7.61401 3.55149 7.61401 3.55149C7.61401 3.55149 8.93431 3.2778 11.4303 5.06509C12.7832 4.4856 16.3901 4.43732 18.0966 4.93642C19.1442 4.24396 21.0597 3.26151 21.8331 3.53632C22.0421 3.87353 22.493 4.85544 22.1062 7.01374C22.3693 7.487 23.7329 8.49534 23.7384 11.3455C23.7159 12.3965 23.6069 13.284 23.4046 14.0349C26.6589 14.0073 28.5732 14.276 29.8918 14.5188C29.9435 14.5294 29.9784 14.5795 29.9693 14.6317C29.9604 14.6779 29.9199 14.711 29.875 14.711C29.8682 14.711 29.8626 14.7105 29.8559 14.7099C28.5395 14.466 26.6218 14.1984 23.3484 14.2282C23.291 14.4188 23.227 14.5998 23.1572 14.7723C24.2713 14.8094 27.331 14.9286 29.8266 15.6918C29.8783 15.7076 29.9064 15.7615 29.8907 15.8132C29.8783 15.8542 29.8401 15.8812 29.7985 15.8812C29.7895 15.8812 29.7794 15.8801 29.7704 15.8767C27.24 15.1034 24.1139 14.9971 23.0742 14.9628C22.1692 16.9508 20.3133 17.6927 17.3131 18.0012C18.2855 18.6133 18.5642 19.381 18.5642 21.4584C18.5642 23.5358 18.5362 23.8146 18.5429 24.2922C18.5531 25.0764 19.7018 25.4517 19.6592 25.7041C19.6165 25.956 18.6981 25.9154 18.2687 25.7654C17.0524 25.3417 17.1738 24.3299 17.1738 24.3299L17.1333 21.5523C17.1333 21.5523 17.2165 20.0572 16.6646 20.0572C16.6646 20.3579 16.6646 23.5284 16.6646 24.6036C16.6646 25.5917 17.3559 25.8919 17.3559 26.2572C17.3559 26.885 16.0925 26.1977 15.7035 25.8059C15.1097 25.2101 15.1772 23.9467 15.1918 22.9474C15.2052 21.9823 15.1828 19.8718 15.1828 19.8718L14.7799 19.8803C14.7799 19.8803 14.9451 24.4908 14.5674 25.331C14.079 26.4096 12.6059 26.7806 12.6059 26.2893C12.6059 25.9587 12.9689 26.0639 13.1696 25.3232C13.341 24.6931 13.2825 19.9926 13.2825 19.9926C13.2825 19.9926 12.8105 20.272 12.8105 21.1521C12.8105 21.5551 12.7992 23.8567 12.7992 24.5419C12.7992 25.4035 11.5756 25.8941 10.9877 25.8941C10.6898 25.8941 10.3194 25.8796 10.3194 25.7217C10.3194 25.3232 11.4385 25.0893 11.4385 24.2603C11.4385 23.5415 11.4227 21.6924 11.4227 21.6924C11.4227 21.6924 10.8584 21.7889 10.0536 21.7889C8.02458 21.7889 7.38269 20.494 7.07747 19.7695C6.68009 18.8258 6.1647 18.3824 5.61726 18.0283C5.28116 17.8108 5.20358 17.5539 5.59253 17.4808C7.38884 17.1425 7.84804 19.5177 9.04745 19.8959C9.90345 20.1663 11.004 20.0494 11.5514 19.6953C11.6239 18.9696 12.1467 18.3424 12.5822 18.012C9.53144 17.7191 7.72271 16.6597 6.78521 14.9566C3.59384 15.0331 1.78294 15.486 0.455381 15.8176C0.358702 15.8418 0.264307 15.8654 0.173252 15.8885C0.165401 15.8901 0.157491 15.8907 0.149639 15.8907C0.106338 15.8907 0.0670219 15.8615 0.0557719 15.8176C0.0428227 15.7659 0.0748735 15.7131 0.126612 15.7001C0.218018 15.6776 0.311885 15.6547 0.407979 15.63Z" fill="white"/>
</svg>
