<svg width="25" height="25" viewBox="0 0 25 25" fill="none" xmlns="http://www.w3.org/2000/svg">
<g clip-path="url(#clip0_55_469)">
<path fill-rule="evenodd" clip-rule="evenodd" d="M5.68867 24.4248V8.33272H0.340576V24.4247H5.68867V24.4248ZM3.01519 6.13643C4.87959 6.13643 6.04097 4.89971 6.04097 3.35552C6.00571 1.777 4.87959 0.575195 3.05015 0.575195C1.22041 0.575244 0.0244141 1.77705 0.0244141 3.35557C0.0244141 4.89976 1.18516 6.13647 2.97998 6.13647L3.01519 6.13643ZM8.64863 24.4248C8.64863 24.4248 8.7188 9.84258 8.64863 8.33276H13.9976V10.6665H13.9621C14.6654 9.56831 15.9325 7.95488 18.8175 7.95488C22.3373 7.95488 24.9755 10.2548 24.9755 15.1977V24.4248H19.6275V15.816C19.6275 13.6529 18.8537 12.1768 16.9177 12.1768C15.4404 12.1768 14.5601 13.1719 14.1734 14.1338C14.032 14.4762 13.9976 14.9571 13.9976 15.4381V24.4248H8.64863Z" fill="white"/>
</g>
<defs>
<clipPath id="clip0_55_469">
<rect width="25" height="25" fill="white"/>
</clipPath>
</defs>
</svg>
