<svg width="21" height="21" viewBox="0 0 21 21" fill="none" xmlns="http://www.w3.org/2000/svg">
<path d="M12.205 1.42933C9.23915 0.841958 6.04427 1.69747 3.74587 3.99587C0.0847097 7.65703 0.0847097 13.5929 3.74587 17.2541C7.40703 20.9153 13.3429 20.9153 17.0041 17.2541C19.3025 14.9557 20.158 11.7608 19.5706 8.79499" stroke="white" stroke-width="1.5" stroke-linecap="round" stroke-linejoin="round"/>
<path d="M16.6204 0.939455C16.3785 0.939455 16.1825 0.729149 16.1825 0.469728C16.1825 0.210306 16.3785 0 16.6204 0H20.1241C20.6079 0 21 0.420608 21 0.939455V4.69728C21 4.95671 20.8039 5.167 20.562 5.167C20.3202 5.167 20.1241 4.95671 20.1241 4.69728V1.59399L12.9976 9.23743C12.8266 9.42086 12.5493 9.42086 12.3783 9.23743C12.2072 9.05395 12.2072 8.75657 12.3783 8.57309L19.4956 0.939455H16.6204Z" fill="white"/>
</svg>
