<svg width="47" height="47" viewBox="0 0 47 47" fill="none" xmlns="http://www.w3.org/2000/svg">
<circle cx="23.089" cy="23.089" r="22.4733" stroke="white" stroke-width="1.23141"/>
<path d="M31.8333 14.1667L23.5 22.5001M31.8333 14.1667V18.8542M31.8333 14.1667H27.1458M30.7916 23.0209V27.5001C30.7916 28.6669 30.7916 29.2503 30.5645 29.6959C30.3649 30.0879 30.0461 30.4066 29.6541 30.6063C29.2085 30.8334 28.6251 30.8334 27.4583 30.8334H18.5C17.3332 30.8334 16.7498 30.8334 16.3041 30.6063C15.9121 30.4066 15.5934 30.0879 15.3937 29.6959C15.1666 29.2503 15.1666 28.6669 15.1666 27.5001V18.5417C15.1666 17.375 15.1666 16.7916 15.3937 16.3459C15.5934 15.9539 15.9121 15.6352 16.3041 15.4355C16.7498 15.2084 17.3332 15.2084 18.5 15.2084H22.9791" stroke="white" stroke-width="1.5" stroke-linecap="round" stroke-linejoin="round"/>
</svg>
