<svg width="25" height="25" viewBox="0 0 25 25" fill="none" xmlns="http://www.w3.org/2000/svg">
<path fill-rule="evenodd" clip-rule="evenodd" d="M7.8625 22.4997C17.2962 22.4997 22.4562 14.8042 22.4562 8.13146C22.4562 7.9124 22.4562 7.69498 22.4412 7.47838C23.445 6.76458 24.3113 5.87832 25 4.86425C24.065 5.27283 23.0712 5.54079 22.055 5.65892C23.125 5.02759 23.9263 4.03572 24.31 2.86534C23.3025 3.45361 22.2012 3.86878 21.0525 4.09154C19.11 2.05845 15.8612 1.95995 13.795 3.87242C12.4637 5.10556 11.8975 6.94415 12.3112 8.69786C8.1875 8.49358 4.345 6.57621 1.74 3.42198C0.37875 5.7295 1.075 8.68036 3.32875 10.1621C2.5125 10.1387 1.71375 9.92234 1 9.53099V9.59508C1.00125 11.9986 2.7225 14.0682 5.115 14.5444C4.36 14.7475 3.5675 14.7769 2.8 14.6305C3.47125 16.6882 5.3975 18.0976 7.59125 18.1382C5.775 19.5436 3.53125 20.3068 1.22125 20.3043C0.81375 20.3031 0.40625 20.2797 0 20.2317C2.34625 21.7134 5.075 22.4998 7.8625 22.4961" fill="white"/>
</svg>
